<svg xmlns="http://www.w3.org/2000/svg" width="14.242" height="14.242" viewBox="0 0 14.242 14.242"><defs><style>.a{fill:#291e6c;}</style></defs><g transform="translate(-6 -4.5)"><path class="a" d="M27.526,7.013A2.513,2.513,0,1,1,25.013,4.5,2.513,2.513,0,0,1,27.526,7.013Z" transform="translate(-7.285)"/><path class="a" d="M13.54,7.675A4.153,4.153,0,0,1,13.893,6H7.675A1.677,1.677,0,0,0,6,7.675V17.728A1.677,1.677,0,0,0,7.675,19.4H17.728A1.677,1.677,0,0,0,19.4,17.728V11.511A4.181,4.181,0,0,1,13.54,7.675Z" transform="translate(0 -0.662)"/></g></svg>