<svg xmlns="http://www.w3.org/2000/svg" width="17.618" height="17.602" viewBox="0 0 17.618 17.602"><defs><style>.a{fill:#291e6c;}</style></defs><path class="a" d="M15.431,17.6H2.217A2.123,2.123,0,0,1,.66,16.955,2.118,2.118,0,0,1,.015,15.4V2.184A2.094,2.094,0,0,1,.66.636,2.136,2.136,0,0,1,2.217,0h9.91l-2.2,2.185H3.318a1.05,1.05,0,0,0-.783.327,1.072,1.072,0,0,0-.318.774V14.3a1.05,1.05,0,0,0,.327.783,1.072,1.072,0,0,0,.774.318H14.329a1.087,1.087,0,0,0,1.1-1.1V7.69l2.2-2.2V15.4a2.2,2.2,0,0,1-2.2,2.2ZM5.521,9.617,8,12.095,4.42,13.2ZM9.1,11.269,6.346,8.534,14.587.275a1.019,1.019,0,0,1,1.393,0L17.34,1.651a.954.954,0,0,1,.284.679.92.92,0,0,1-.284.7Z" transform="translate(-0.015 0.001)"/></svg>