<svg xmlns="http://www.w3.org/2000/svg" width="97.398" height="97.398" viewBox="0 0 97.398 97.398"><defs><style>.a{fill:#1a6132;}</style></defs><path class="a" d="M52.074,3.375a48.7,48.7,0,1,0,48.7,48.7A48.691,48.691,0,0,0,52.074,3.375ZM77.008,38.612l-31.3,31.444h-.023a4.226,4.226,0,0,1-2.717,1.289,4.1,4.1,0,0,1-2.74-1.335L27.114,56.9a.931.931,0,0,1,0-1.335l4.169-4.169a.909.909,0,0,1,1.312,0l10.4,10.4L71.554,33.014a.928.928,0,0,1,.656-.28.854.854,0,0,1,.656.28l4.1,4.239A.921.921,0,0,1,77.008,38.612Z" transform="translate(-3.375 -3.375)"/></svg>