<svg xmlns="http://www.w3.org/2000/svg" width="31.5" height="32.625" viewBox="0 0 31.5 32.625"><defs><style>.a{fill:#bebebe;}</style></defs><g transform="translate(-2.25 -1.125)"><path class="a" d="M29.25,19.8V14.625a11.25,11.25,0,0,0-1.226-5.063L33.75,3.836,32.164,2.25,2.25,32.164,3.836,33.75l5.625-5.625h2.914a5.625,5.625,0,0,0,11.25,0H31.5A1.057,1.057,0,0,0,32.625,27V23.625a1.024,1.024,0,0,0-.337-.787ZM18,31.5a3.375,3.375,0,0,1-3.375-3.375h6.75A3.375,3.375,0,0,1,18,31.5Z"/><path class="a" d="M24.334,5.31a11,11,0,0,0-5.209-1.935V1.125h-2.25v2.25A11.419,11.419,0,0,0,6.75,14.625V19.8L3.712,22.838a1.024,1.024,0,0,0-.337.787v2.632Z"/></g></svg>